<svg width="1720" height="1811" xmlns="http://www.w3.org/2000/svg" xmlns:xlink="http://www.w3.org/1999/xlink" xml:space="preserve" overflow="hidden"><g transform="translate(-873 -92)"><rect x="1567" y="458" width="1009" height="238" stroke="#404040" stroke-width="10.3125" stroke-linejoin="round" stroke-miterlimit="10" fill="#FFFFFF"/><rect x="1567" y="838" width="1009" height="238" stroke="#404040" stroke-width="10.3125" stroke-linejoin="round" stroke-miterlimit="10" fill="#FFFFFF"/><rect x="1567" y="1218" width="1009" height="238" stroke="#404040" stroke-width="10.3125" stroke-linejoin="round" stroke-miterlimit="10" fill="#FFFFFF"/><path d="M1622 1289.67C1622 1276.6 1632.6 1266 1645.67 1266L1833.33 1266C1846.4 1266 1857 1276.6 1857 1289.67L1857 1384.33C1857 1397.4 1846.4 1408 1833.33 1408L1645.67 1408C1632.6 1408 1622 1397.4 1622 1384.33Z" fill="#F06E00" fill-rule="evenodd"/><text fill="#FFFFFF" font-family="Arial,Arial_MSFontService,sans-serif" font-weight="400" font-size="62" transform="matrix(1 0 0 1 1674.12 1360)">Par1</text><path d="M1954 1289.67C1954 1276.6 1964.6 1266 1977.67 1266L2165.33 1266C2178.4 1266 2189 1276.6 2189 1289.67L2189 1384.33C2189 1397.4 2178.4 1408 2165.33 1408L1977.67 1408C1964.6 1408 1954 1397.4 1954 1384.33Z" fill="#F06E00" fill-rule="evenodd"/><text fill="#FFFFFF" font-family="Arial,Arial_MSFontService,sans-serif" font-weight="400" font-size="62" transform="matrix(1 0 0 1 2006.39 1360)">Par2</text><path d="M2265 1286.83C2265 1273.67 2275.67 1263 2288.83 1263L2476.17 1263C2489.33 1263 2500 1273.67 2500 1286.83L2500 1382.17C2500 1395.33 2489.33 1406 2476.17 1406L2288.83 1406C2275.67 1406 2265 1395.33 2265 1382.17Z" fill="#F06E00" fill-rule="evenodd"/><text fill="#FFFFFF" font-family="Arial,Arial_MSFontService,sans-serif" font-weight="400" font-size="62" transform="matrix(1 0 0 1 2317.07 1357)">Par3</text><path d="M1622 908.667C1622 895.596 1632.6 885 1645.67 885L1833.33 885C1846.4 885 1857 895.596 1857 908.667L1857 1003.33C1857 1016.4 1846.4 1027 1833.33 1027L1645.67 1027C1632.6 1027 1622 1016.4 1622 1003.33Z" fill="#33D682" fill-rule="evenodd"/><text fill="#FFFFFF" font-family="Arial,Arial_MSFontService,sans-serif" font-weight="400" font-size="62" transform="matrix(1 0 0 1 1674.12 979)">Par1</text><path d="M1954 908.667C1954 895.596 1964.6 885 1977.67 885L2165.33 885C2178.4 885 2189 895.596 2189 908.667L2189 1003.33C2189 1016.4 2178.4 1027 2165.33 1027L1977.67 1027C1964.6 1027 1954 1016.4 1954 1003.33Z" fill="#33D682" fill-rule="evenodd"/><text fill="#FFFFFF" font-family="Arial,Arial_MSFontService,sans-serif" font-weight="400" font-size="62" transform="matrix(1 0 0 1 2006.39 979)">Par2</text><path d="M1622 533.667C1622 520.596 1632.6 510 1645.67 510L1833.33 510C1846.4 510 1857 520.596 1857 533.667L1857 628.333C1857 641.404 1846.4 652 1833.33 652L1645.67 652C1632.6 652 1622 641.404 1622 628.333Z" fill="#26A5FF" fill-rule="evenodd"/><text fill="#FFFFFF" font-family="Arial,Arial_MSFontService,sans-serif" font-weight="400" font-size="62" transform="matrix(1 0 0 1 1674.12 604)">Par1</text><text font-family="Arial,Arial_MSFontService,sans-serif" font-weight="400" font-size="55" transform="matrix(1 0 0 1 1994.43 1192)">Base</text><text font-family="Arial,Arial_MSFontService,sans-serif" font-weight="400" font-size="55" transform="matrix(1 0 0 1 2134.8 1192)">alternative</text><text font-family="Arial,Arial_MSFontService,sans-serif" font-weight="400" font-size="55" transform="matrix(1 0 0 1 1994.43 792)">Alt</text><text font-family="Arial,Arial_MSFontService,sans-serif" font-weight="400" font-size="55" transform="matrix(1 0 0 1 2058.6 792)">ernative </text><text font-family="Arial,Arial_MSFontService,sans-serif" font-weight="400" font-size="55" transform="matrix(1 0 0 1 2268.86 792)">1</text><text font-family="Arial,Arial_MSFontService,sans-serif" font-weight="400" font-size="55" transform="matrix(1 0 0 1 1994.43 419)">Alt</text><text font-family="Arial,Arial_MSFontService,sans-serif" font-weight="400" font-size="55" transform="matrix(1 0 0 1 2058.6 419)">ernative </text><text font-family="Arial,Arial_MSFontService,sans-serif" font-weight="400" font-size="55" transform="matrix(1 0 0 1 2268.86 419)">2</text><rect x="878" y="458" width="391" height="238" stroke="#404040" stroke-width="10.3125" stroke-linejoin="round" stroke-miterlimit="10" fill="#FFFFFF"/><text font-family="Arial,Arial_MSFontService,sans-serif" font-weight="400" font-size="64" transform="matrix(1 0 0 1 1030.85 562)">My</text><text font-family="Arial,Arial_MSFontService,sans-serif" font-weight="400" font-size="64" transform="matrix(1 0 0 1 952.638 639)">scen</text><text font-family="Arial,Arial_MSFontService,sans-serif" font-weight="400" font-size="64" transform="matrix(1 0 0 1 1087.85 639)">ario</text><path d="M1269 577 1418.09 577 1418.09 577.001 1567.18 577.001" stroke="#000000" stroke-width="10.3125" stroke-linejoin="round" stroke-miterlimit="10" fill="none" fill-rule="evenodd"/><path d="M1269 577 1418.09 577 1418.09 956.857 1567.18 956.857" stroke="#000000" stroke-width="10.3125" stroke-linejoin="round" stroke-miterlimit="10" fill="none" fill-rule="evenodd"/><path d="M1269 577 1418.09 577 1418.09 1336.71 1567.18 1336.71" stroke="#000000" stroke-width="10.3125" stroke-linejoin="round" stroke-miterlimit="10" fill="none" fill-rule="evenodd"/><text font-family="Arial,Arial_MSFontService,sans-serif" font-weight="700" font-size="55" transform="matrix(1 0 0 1 1142.16 223)">Final values</text><rect x="1567" y="96.9999" width="1009" height="238" stroke="#404040" stroke-width="10.3125" stroke-linejoin="round" stroke-miterlimit="10" fill="#D9D9D9"/><path d="M2265 165.834C2265 152.671 2275.67 142 2288.83 142L2476.17 142C2489.33 142 2500 152.671 2500 165.834L2500 261.166C2500 274.329 2489.33 285 2476.17 285L2288.83 285C2275.67 285 2265 274.329 2265 261.166Z" fill="#F06E00" fill-rule="evenodd"/><text fill="#FFFFFF" font-family="Arial,Arial_MSFontService,sans-serif" font-weight="400" font-size="62" transform="matrix(1 0 0 1 2317.07 236)">Par3</text><path d="M1622 168.667C1622 155.596 1632.6 145 1645.67 145L1833.33 145C1846.4 145 1857 155.596 1857 168.667L1857 263.333C1857 276.404 1846.4 287 1833.33 287L1645.67 287C1632.6 287 1622 276.404 1622 263.333Z" fill="#26A5FF" fill-rule="evenodd"/><text fill="#FFFFFF" font-family="Arial,Arial_MSFontService,sans-serif" font-weight="400" font-size="62" transform="matrix(1 0 0 1 1674.12 239)">Par1</text><path d="M1954 168.667C1954 155.596 1964.6 145 1977.67 145L2165.33 145C2178.4 145 2189 155.596 2189 168.667L2189 263.333C2189 276.404 2178.4 287 2165.33 287L1977.67 287C1964.6 287 1954 276.404 1954 263.333Z" fill="#33D682" fill-rule="evenodd"/><text fill="#FFFFFF" font-family="Arial,Arial_MSFontService,sans-serif" font-weight="400" font-size="62" transform="matrix(1 0 0 1 2005.71 239)">Par2</text><text font-family="Arial,Arial_MSFontService,sans-serif" font-weight="400" font-size="64" transform="matrix(0.452355 0.891838 -0.891838 0.452355 1709.93 1520)">Parameter 1</text><text font-family="Arial,Arial_MSFontService,sans-serif" font-weight="400" font-size="64" transform="matrix(0.452355 0.891838 -0.891838 0.452355 2045.97 1520)">Parameter 2</text><text font-family="Arial,Arial_MSFontService,sans-serif" font-weight="400" font-size="64" transform="matrix(0.452355 0.891838 -0.891838 0.452355 2343.46 1518)">Parameter 3</text></g></svg>